<?xml version="1.0" encoding="UTF-8" standalone="no"?>
<!DOCTYPE svg PUBLIC "-//W3C//DTD SVG 1.1//EN" "http://www.w3.org/Graphics/SVG/1.1/DTD/svg11.dtd">
<svg xmlns="http://www.w3.org/2000/svg" version="1.1" viewBox="0.00 0.00 1024.00 1024.00">
<g stroke-width="2.00" fill="none" stroke-linecap="butt">
<path stroke="#8b8b8e" vector-effect="non-scaling-stroke" d="
  M 294.48 471.85
  C 286.45 464.48 274.45 460.74 264.00 458.31
  Q 237.96 452.29 212.00 446.01
  C 199.05 442.89 198.30 428.52 200.73 417.99
  C 205.36 397.92 233.20 399.24 248.76 400.30
  Q 269.77 401.74 290.53 405.82
  Q 291.12 405.94 291.12 405.34
  L 291.11 370.49
  A 0.76 0.76 0.0 0 0 290.53 369.75
  Q 254.21 361.38 217.99 365.09
  Q 207.36 366.17 197.00 369.90
  C 170.77 379.33 161.62 399.06 159.98 425.47
  Q 159.07 440.02 163.04 452.51
  C 168.11 468.47 181.18 476.84 196.98 480.72
  Q 220.03 486.38 243.13 491.82
  C 256.87 495.05 264.83 496.54 265.39 511.74
  C 266.17 532.93 258.27 540.34 237.49 541.19
  Q 198.52 542.78 160.90 532.39
  Q 160.38 532.25 160.38 532.78
  L 160.38 569.25
  Q 160.38 569.80 160.90 569.98
  C 180.15 576.46 202.31 578.58 222.50 578.96
  C 239.95 579.28 255.55 578.44 271.35 573.11
  C 303.10 562.41 309.49 532.23 306.79 502.25
  C 305.79 491.20 302.75 479.43 294.48 471.85"
/>
<path stroke="#8b8b8e" vector-effect="non-scaling-stroke" d="
  M 398.99 460.87
  A 0.34 0.34 0.0 0 1 398.65 460.53
  L 398.64 403.59
  A 0.34 0.34 0.0 0 1 398.98 403.25
  L 497.16 403.25
  A 0.34 0.34 0.0 0 0 497.50 402.91
  L 497.50 367.71
  A 0.34 0.34 0.0 0 0 497.16 367.37
  L 358.46 367.38
  A 0.34 0.34 0.0 0 0 358.12 367.72
  L 358.12 575.78
  A 0.34 0.34 0.0 0 0 358.46 576.12
  L 398.30 576.12
  A 0.34 0.34 0.0 0 0 398.64 575.78
  L 398.64 495.46
  A 0.34 0.34 0.0 0 1 398.98 495.12
  L 484.66 495.12
  A 0.34 0.34 0.0 0 0 485.00 494.78
  L 485.00 461.20
  A 0.34 0.34 0.0 0 0 484.66 460.86
  L 398.99 460.87"
/>
<path stroke="#8b8b8e" vector-effect="non-scaling-stroke" d="
  M 595.14 403.25
  A 0.36 0.36 0.0 0 1 595.50 403.61
  L 595.50 575.76
  A 0.36 0.36 0.0 0 0 595.86 576.12
  L 635.64 576.12
  A 0.36 0.36 0.0 0 0 636.00 575.76
  L 636.00 403.61
  A 0.36 0.36 0.0 0 1 636.36 403.25
  L 699.64 403.25
  A 0.36 0.36 0.0 0 0 700.00 402.89
  L 700.00 367.74
  A 0.36 0.36 0.0 0 0 699.64 367.38
  L 532.11 367.38
  A 0.36 0.36 0.0 0 0 531.75 367.74
  L 531.75 402.89
  A 0.36 0.36 0.0 0 0 532.11 403.25
  L 595.14 403.25"
/>
<path stroke="#8b8b8e" vector-effect="non-scaling-stroke" d="
  M 506.25 708.72
  L 506.25 640.75
  Q 506.25 640.25 505.75 640.25
  L 485.75 640.25
  Q 485.25 640.25 485.25 640.75
  L 485.25 855.25
  A 0.66 0.65 7.5 0 0 485.74 855.88
  Q 513.93 863.49 543.01 863.94
  C 574.47 864.43 608.37 859.42 620.63 825.53
  C 626.55 809.19 627.98 790.84 627.55 773.61
  C 627.15 757.15 625.54 741.96 619.98 727.00
  C 610.53 701.58 587.45 693.60 562.10 693.92
  Q 531.96 694.29 506.73 708.99
  Q 506.25 709.27 506.25 708.72"
/>
<path stroke="#8b8b8e" vector-effect="non-scaling-stroke" d="
  M 288.11 841.88
  A 0.50 0.50 0.0 0 0 287.61 841.38
  L 182.36 841.39
  A 0.50 0.50 0.0 0 1 181.86 840.89
  L 181.86 653.39
  A 0.50 0.50 0.0 0 0 181.36 652.89
  L 160.89 652.92
  A 0.50 0.50 0.0 0 0 160.39 653.42
  L 160.38 861.14
  A 0.50 0.50 0.0 0 0 160.88 861.64
  L 287.62 861.60
  A 0.50 0.50 0.0 0 0 288.12 861.10
  L 288.11 841.88"
/>
<path stroke="#8b8b8e" vector-effect="non-scaling-stroke" d="
  M 416.88 769.97
  Q 385.44 764.61 353.73 766.87
  Q 347.46 767.32 342.36 768.45
  C 320.61 773.27 309.44 783.08 307.03 805.84
  C 305.38 821.44 307.18 842.62 320.19 853.65
  C 327.89 860.18 338.33 862.99 348.25 863.68
  C 372.41 865.36 398.11 859.92 417.84 845.43
  A 0.42 0.41 70.0 0 1 418.50 845.74
  L 419.46 861.05
  Q 419.49 861.60 420.05 861.60
  L 437.50 861.61
  Q 438.38 861.61 438.38 860.73
  Q 438.40 804.94 438.31 748.61
  C 438.26 722.43 427.48 701.02 399.96 695.78
  C 390.87 694.05 384.31 693.87 374.00 693.92
  Q 349.00 694.05 324.04 699.67
  A 0.87 0.86 -6.3 0 0 323.36 700.51
  L 323.37 717.51
  Q 323.38 718.18 324.03 718.03
  Q 355.98 710.35 386.50 713.21
  Q 393.65 713.88 400.60 717.35
  C 420.33 727.21 417.71 751.36 417.46 769.49
  Q 417.45 770.07 416.88 769.97"
/>
<path stroke="#8b8b8e" vector-effect="non-scaling-stroke" d="
  M 762.56 775.92
  Q 755.28 772.48 749.50 771.49
  Q 738.89 769.68 698.87 763.54
  C 691.05 762.35 684.13 759.26 681.81 750.95
  Q 679.16 741.47 682.65 729.57
  C 685.90 718.51 695.93 714.97 706.05 713.61
  Q 716.73 712.17 727.50 712.42
  Q 747.82 712.88 767.99 715.67
  Q 768.50 715.74 768.50 715.23
  L 768.50 697.77
  A 0.74 0.73 4.6 0 0 767.88 697.05
  Q 748.26 693.99 728.51 693.91
  C 691.27 693.76 658.81 699.37 659.98 745.67
  C 660.44 763.99 669.15 778.09 688.03 781.13
  Q 699.14 782.91 735.92 788.64
  C 741.03 789.44 745.51 790.78 749.77 792.93
  C 761.31 798.76 760.19 816.26 757.37 826.58
  C 753.18 841.93 737.11 844.65 723.25 844.94
  C 702.09 845.39 679.38 843.59 659.46 836.96
  Q 659.00 836.81 659.00 837.28
  L 659.00 855.76
  A 1.11 1.10 -83.4 0 0 659.85 856.84
  Q 683.09 862.51 707.00 863.62
  C 726.27 864.52 753.09 865.42 768.04 850.21
  C 779.55 838.48 781.57 816.56 779.24 801.08
  C 777.46 789.23 773.25 780.98 762.56 775.92"
/>
<path stroke="#8b8b8e" vector-effect="non-scaling-stroke" d="
  M 600.60 819.06
  C 606.37 804.31 607.25 786.79 606.57 770.97
  C 606.00 757.53 604.63 743.81 599.19 732.83
  C 593.46 721.27 582.87 715.56 570.52 713.69
  Q 536.26 708.51 506.68 726.01
  A 0.87 0.85 -15.3 0 0 506.25 726.75
  L 506.25 839.24
  Q 506.25 839.72 506.70 839.86
  C 523.52 845.18 542.83 845.92 560.49 844.36
  C 578.05 842.80 593.73 836.61 600.60 819.06"
/>
<path stroke="#8b8b8e" vector-effect="non-scaling-stroke" d="
  M 341.45 841.81
  Q 347.53 844.36 351.50 844.75
  Q 386.29 848.14 416.55 830.63
  A 1.91 1.90 75.0 0 0 417.50 828.98
  L 417.50 787.54
  Q 417.50 787.11 417.08 787.04
  Q 390.37 782.20 363.25 783.32
  Q 353.94 783.71 344.27 786.36
  C 331.45 789.88 326.84 799.20 326.35 812.08
  C 325.89 824.00 329.62 836.84 341.45 841.81"
/>
</g>
<path fill="#17161d" d="
  M 0.00 0.00
  L 1024.00 0.00
  L 1024.00 1024.00
  L 0.00 1024.00
  L 0.00 0.00
  Z
  M 294.48 471.85
  C 286.45 464.48 274.45 460.74 264.00 458.31
  Q 237.96 452.29 212.00 446.01
  C 199.05 442.89 198.30 428.52 200.73 417.99
  C 205.36 397.92 233.20 399.24 248.76 400.30
  Q 269.77 401.74 290.53 405.82
  Q 291.12 405.94 291.12 405.34
  L 291.11 370.49
  A 0.76 0.76 0.0 0 0 290.53 369.75
  Q 254.21 361.38 217.99 365.09
  Q 207.36 366.17 197.00 369.90
  C 170.77 379.33 161.62 399.06 159.98 425.47
  Q 159.07 440.02 163.04 452.51
  C 168.11 468.47 181.18 476.84 196.98 480.72
  Q 220.03 486.38 243.13 491.82
  C 256.87 495.05 264.83 496.54 265.39 511.74
  C 266.17 532.93 258.27 540.34 237.49 541.19
  Q 198.52 542.78 160.90 532.39
  Q 160.38 532.25 160.38 532.78
  L 160.38 569.25
  Q 160.38 569.80 160.90 569.98
  C 180.15 576.46 202.31 578.58 222.50 578.96
  C 239.95 579.28 255.55 578.44 271.35 573.11
  C 303.10 562.41 309.49 532.23 306.79 502.25
  C 305.79 491.20 302.75 479.43 294.48 471.85
  Z
  M 398.99 460.87
  A 0.34 0.34 0.0 0 1 398.65 460.53
  L 398.64 403.59
  A 0.34 0.34 0.0 0 1 398.98 403.25
  L 497.16 403.25
  A 0.34 0.34 0.0 0 0 497.50 402.91
  L 497.50 367.71
  A 0.34 0.34 0.0 0 0 497.16 367.37
  L 358.46 367.38
  A 0.34 0.34 0.0 0 0 358.12 367.72
  L 358.12 575.78
  A 0.34 0.34 0.0 0 0 358.46 576.12
  L 398.30 576.12
  A 0.34 0.34 0.0 0 0 398.64 575.78
  L 398.64 495.46
  A 0.34 0.34 0.0 0 1 398.98 495.12
  L 484.66 495.12
  A 0.34 0.34 0.0 0 0 485.00 494.78
  L 485.00 461.20
  A 0.34 0.34 0.0 0 0 484.66 460.86
  L 398.99 460.87
  Z
  M 595.14 403.25
  A 0.36 0.36 0.0 0 1 595.50 403.61
  L 595.50 575.76
  A 0.36 0.36 0.0 0 0 595.86 576.12
  L 635.64 576.12
  A 0.36 0.36 0.0 0 0 636.00 575.76
  L 636.00 403.61
  A 0.36 0.36 0.0 0 1 636.36 403.25
  L 699.64 403.25
  A 0.36 0.36 0.0 0 0 700.00 402.89
  L 700.00 367.74
  A 0.36 0.36 0.0 0 0 699.64 367.38
  L 532.11 367.38
  A 0.36 0.36 0.0 0 0 531.75 367.74
  L 531.75 402.89
  A 0.36 0.36 0.0 0 0 532.11 403.25
  L 595.14 403.25
  Z
  M 506.25 708.72
  L 506.25 640.75
  Q 506.25 640.25 505.75 640.25
  L 485.75 640.25
  Q 485.25 640.25 485.25 640.75
  L 485.25 855.25
  A 0.66 0.65 7.5 0 0 485.74 855.88
  Q 513.93 863.49 543.01 863.94
  C 574.47 864.43 608.37 859.42 620.63 825.53
  C 626.55 809.19 627.98 790.84 627.55 773.61
  C 627.15 757.15 625.54 741.96 619.98 727.00
  C 610.53 701.58 587.45 693.60 562.10 693.92
  Q 531.96 694.29 506.73 708.99
  Q 506.25 709.27 506.25 708.72
  Z
  M 288.11 841.88
  A 0.50 0.50 0.0 0 0 287.61 841.38
  L 182.36 841.39
  A 0.50 0.50 0.0 0 1 181.86 840.89
  L 181.86 653.39
  A 0.50 0.50 0.0 0 0 181.36 652.89
  L 160.89 652.92
  A 0.50 0.50 0.0 0 0 160.39 653.42
  L 160.38 861.14
  A 0.50 0.50 0.0 0 0 160.88 861.64
  L 287.62 861.60
  A 0.50 0.50 0.0 0 0 288.12 861.10
  L 288.11 841.88
  Z
  M 416.88 769.97
  Q 385.44 764.61 353.73 766.87
  Q 347.46 767.32 342.36 768.45
  C 320.61 773.27 309.44 783.08 307.03 805.84
  C 305.38 821.44 307.18 842.62 320.19 853.65
  C 327.89 860.18 338.33 862.99 348.25 863.68
  C 372.41 865.36 398.11 859.92 417.84 845.43
  A 0.42 0.41 70.0 0 1 418.50 845.74
  L 419.46 861.05
  Q 419.49 861.60 420.05 861.60
  L 437.50 861.61
  Q 438.38 861.61 438.38 860.73
  Q 438.40 804.94 438.31 748.61
  C 438.26 722.43 427.48 701.02 399.96 695.78
  C 390.87 694.05 384.31 693.87 374.00 693.92
  Q 349.00 694.05 324.04 699.67
  A 0.87 0.86 -6.3 0 0 323.36 700.51
  L 323.37 717.51
  Q 323.38 718.18 324.03 718.03
  Q 355.98 710.35 386.50 713.21
  Q 393.65 713.88 400.60 717.35
  C 420.33 727.21 417.71 751.36 417.46 769.49
  Q 417.45 770.07 416.88 769.97
  Z
  M 762.56 775.92
  Q 755.28 772.48 749.50 771.49
  Q 738.89 769.68 698.87 763.54
  C 691.05 762.35 684.13 759.26 681.81 750.95
  Q 679.16 741.47 682.65 729.57
  C 685.90 718.51 695.93 714.97 706.05 713.61
  Q 716.73 712.17 727.50 712.42
  Q 747.82 712.88 767.99 715.67
  Q 768.50 715.74 768.50 715.23
  L 768.50 697.77
  A 0.74 0.73 4.6 0 0 767.88 697.05
  Q 748.26 693.99 728.51 693.91
  C 691.27 693.76 658.81 699.37 659.98 745.67
  C 660.44 763.99 669.15 778.09 688.03 781.13
  Q 699.14 782.91 735.92 788.64
  C 741.03 789.44 745.51 790.78 749.77 792.93
  C 761.31 798.76 760.19 816.26 757.37 826.58
  C 753.18 841.93 737.11 844.65 723.25 844.94
  C 702.09 845.39 679.38 843.59 659.46 836.96
  Q 659.00 836.81 659.00 837.28
  L 659.00 855.76
  A 1.11 1.10 -83.4 0 0 659.85 856.84
  Q 683.09 862.51 707.00 863.62
  C 726.27 864.52 753.09 865.42 768.04 850.21
  C 779.55 838.48 781.57 816.56 779.24 801.08
  C 777.46 789.23 773.25 780.98 762.56 775.92
  Z"
/>
<path fill="#ffffff" d="
  M 264.00 458.31
  C 274.45 460.74 286.45 464.48 294.48 471.85
  C 302.75 479.43 305.79 491.20 306.79 502.25
  C 309.49 532.23 303.10 562.41 271.35 573.11
  C 255.55 578.44 239.95 579.28 222.50 578.96
  C 202.31 578.58 180.15 576.46 160.90 569.98
  Q 160.38 569.80 160.38 569.25
  L 160.38 532.78
  Q 160.38 532.25 160.90 532.39
  Q 198.52 542.78 237.49 541.19
  C 258.27 540.34 266.17 532.93 265.39 511.74
  C 264.83 496.54 256.87 495.05 243.13 491.82
  Q 220.03 486.38 196.98 480.72
  C 181.18 476.84 168.11 468.47 163.04 452.51
  Q 159.07 440.02 159.98 425.47
  C 161.62 399.06 170.77 379.33 197.00 369.90
  Q 207.36 366.17 217.99 365.09
  Q 254.21 361.38 290.53 369.75
  A 0.76 0.76 0.0 0 1 291.11 370.49
  L 291.12 405.34
  Q 291.12 405.94 290.53 405.82
  Q 269.77 401.74 248.76 400.30
  C 233.20 399.24 205.36 397.92 200.73 417.99
  C 198.30 428.52 199.05 442.89 212.00 446.01
  Q 237.96 452.29 264.00 458.31
  Z"
/>
<path fill="#ffffff" d="
  M 398.99 460.87
  L 484.66 460.86
  A 0.34 0.34 0.0 0 1 485.00 461.20
  L 485.00 494.78
  A 0.34 0.34 0.0 0 1 484.66 495.12
  L 398.98 495.12
  A 0.34 0.34 0.0 0 0 398.64 495.46
  L 398.64 575.78
  A 0.34 0.34 0.0 0 1 398.30 576.12
  L 358.46 576.12
  A 0.34 0.34 0.0 0 1 358.12 575.78
  L 358.12 367.72
  A 0.34 0.34 0.0 0 1 358.46 367.38
  L 497.16 367.37
  A 0.34 0.34 0.0 0 1 497.50 367.71
  L 497.50 402.91
  A 0.34 0.34 0.0 0 1 497.16 403.25
  L 398.98 403.25
  A 0.34 0.34 0.0 0 0 398.64 403.59
  L 398.65 460.53
  A 0.34 0.34 0.0 0 0 398.99 460.87
  Z"
/>
<path fill="#ffffff" d="
  M 595.14 403.25
  L 532.11 403.25
  A 0.36 0.36 0.0 0 1 531.75 402.89
  L 531.75 367.74
  A 0.36 0.36 0.0 0 1 532.11 367.38
  L 699.64 367.38
  A 0.36 0.36 0.0 0 1 700.00 367.74
  L 700.00 402.89
  A 0.36 0.36 0.0 0 1 699.64 403.25
  L 636.36 403.25
  A 0.36 0.36 0.0 0 0 636.00 403.61
  L 636.00 575.76
  A 0.36 0.36 0.0 0 1 635.64 576.12
  L 595.86 576.12
  A 0.36 0.36 0.0 0 1 595.50 575.76
  L 595.50 403.61
  A 0.36 0.36 0.0 0 0 595.14 403.25
  Z"
/>
<path fill="#ffffff" d="
  M 506.73 708.99
  Q 531.96 694.29 562.10 693.92
  C 587.45 693.60 610.53 701.58 619.98 727.00
  C 625.54 741.96 627.15 757.15 627.55 773.61
  C 627.98 790.84 626.55 809.19 620.63 825.53
  C 608.37 859.42 574.47 864.43 543.01 863.94
  Q 513.93 863.49 485.74 855.88
  A 0.66 0.65 7.5 0 1 485.25 855.25
  L 485.25 640.75
  Q 485.25 640.25 485.75 640.25
  L 505.75 640.25
  Q 506.25 640.25 506.25 640.75
  L 506.25 708.72
  Q 506.25 709.27 506.73 708.99
  Z
  M 600.60 819.06
  C 606.37 804.31 607.25 786.79 606.57 770.97
  C 606.00 757.53 604.63 743.81 599.19 732.83
  C 593.46 721.27 582.87 715.56 570.52 713.69
  Q 536.26 708.51 506.68 726.01
  A 0.87 0.85 -15.3 0 0 506.25 726.75
  L 506.25 839.24
  Q 506.25 839.72 506.70 839.86
  C 523.52 845.18 542.83 845.92 560.49 844.36
  C 578.05 842.80 593.73 836.61 600.60 819.06
  Z"
/>
<path fill="#ffffff" d="
  M 288.11 841.88
  L 288.12 861.10
  A 0.50 0.50 0.0 0 1 287.62 861.60
  L 160.88 861.64
  A 0.50 0.50 0.0 0 1 160.38 861.14
  L 160.39 653.42
  A 0.50 0.50 0.0 0 1 160.89 652.92
  L 181.36 652.89
  A 0.50 0.50 0.0 0 1 181.86 653.39
  L 181.86 840.89
  A 0.50 0.50 0.0 0 0 182.36 841.39
  L 287.61 841.38
  A 0.50 0.50 0.0 0 1 288.11 841.88
  Z"
/>
<path fill="#ffffff" d="
  M 417.46 769.49
  C 417.71 751.36 420.33 727.21 400.60 717.35
  Q 393.65 713.88 386.50 713.21
  Q 355.98 710.35 324.03 718.03
  Q 323.38 718.18 323.37 717.51
  L 323.36 700.51
  A 0.87 0.86 -6.3 0 1 324.04 699.67
  Q 349.00 694.05 374.00 693.92
  C 384.31 693.87 390.87 694.05 399.96 695.78
  C 427.48 701.02 438.26 722.43 438.31 748.61
  Q 438.40 804.94 438.38 860.73
  Q 438.38 861.61 437.50 861.61
  L 420.05 861.60
  Q 419.49 861.60 419.46 861.05
  L 418.50 845.74
  A 0.42 0.41 70.0 0 0 417.84 845.43
  C 398.11 859.92 372.41 865.36 348.25 863.68
  C 338.33 862.99 327.89 860.18 320.19 853.65
  C 307.18 842.62 305.38 821.44 307.03 805.84
  C 309.44 783.08 320.61 773.27 342.36 768.45
  Q 347.46 767.32 353.73 766.87
  Q 385.44 764.61 416.88 769.97
  Q 417.45 770.07 417.46 769.49
  Z
  M 341.45 841.81
  Q 347.53 844.36 351.50 844.75
  Q 386.29 848.14 416.55 830.63
  A 1.91 1.90 75.0 0 0 417.50 828.98
  L 417.50 787.54
  Q 417.50 787.11 417.08 787.04
  Q 390.37 782.20 363.25 783.32
  Q 353.94 783.71 344.27 786.36
  C 331.45 789.88 326.84 799.20 326.35 812.08
  C 325.89 824.00 329.62 836.84 341.45 841.81
  Z"
/>
<path fill="#ffffff" d="
  M 762.56 775.92
  C 773.25 780.98 777.46 789.23 779.24 801.08
  C 781.57 816.56 779.55 838.48 768.04 850.21
  C 753.09 865.42 726.27 864.52 707.00 863.62
  Q 683.09 862.51 659.85 856.84
  A 1.11 1.10 -83.4 0 1 659.00 855.76
  L 659.00 837.28
  Q 659.00 836.81 659.46 836.96
  C 679.38 843.59 702.09 845.39 723.25 844.94
  C 737.11 844.65 753.18 841.93 757.37 826.58
  C 760.19 816.26 761.31 798.76 749.77 792.93
  C 745.51 790.78 741.03 789.44 735.92 788.64
  Q 699.14 782.91 688.03 781.13
  C 669.15 778.09 660.44 763.99 659.98 745.67
  C 658.81 699.37 691.27 693.76 728.51 693.91
  Q 748.26 693.99 767.88 697.05
  A 0.74 0.73 4.6 0 1 768.50 697.77
  L 768.50 715.23
  Q 768.50 715.74 767.99 715.67
  Q 747.82 712.88 727.50 712.42
  Q 716.73 712.17 706.05 713.61
  C 695.93 714.97 685.90 718.51 682.65 729.57
  Q 679.16 741.47 681.81 750.95
  C 684.13 759.26 691.05 762.35 698.87 763.54
  Q 738.89 769.68 749.50 771.49
  Q 755.28 772.48 762.56 775.92
  Z"
/>
<path fill="#17161d" d="
  M 600.60 819.06
  C 593.73 836.61 578.05 842.80 560.49 844.36
  C 542.83 845.92 523.52 845.18 506.70 839.86
  Q 506.25 839.72 506.25 839.24
  L 506.25 726.75
  A 0.87 0.85 -15.3 0 1 506.68 726.01
  Q 536.26 708.51 570.52 713.69
  C 582.87 715.56 593.46 721.27 599.19 732.83
  C 604.63 743.81 606.00 757.53 606.57 770.97
  C 607.25 786.79 606.37 804.31 600.60 819.06
  Z"
/>
<path fill="#17161d" d="
  M 341.45 841.81
  C 329.62 836.84 325.89 824.00 326.35 812.08
  C 326.84 799.20 331.45 789.88 344.27 786.36
  Q 353.94 783.71 363.25 783.32
  Q 390.37 782.20 417.08 787.04
  Q 417.50 787.11 417.50 787.54
  L 417.50 828.98
  A 1.91 1.90 75.0 0 1 416.55 830.63
  Q 386.29 848.14 351.50 844.75
  Q 347.53 844.36 341.45 841.81
  Z"
/>
</svg>
